HIERARCHY
ROOT Hips
{
	OFFSET -14.64140 90.27770 -84.91600
	CHANNELS 6 Xposition Yposition Zposition Zrotation Xrotation Yrotation
	JOINT Spine
	{
		OFFSET 0.00000 13.20850 -1.60436
		CHANNELS 3 Zrotation Xrotation Yrotation
		JOINT Spine1
		{
			OFFSET 0.00000 8.61716 0.00000
			CHANNELS 3 Zrotation Xrotation Yrotation
			JOINT Spine2
			{
				OFFSET 0.00000 8.61717 0.00000
				CHANNELS 3 Zrotation Xrotation Yrotation
				JOINT Spine3
				{
					OFFSET 0.00000 8.61717 0.00000
					CHANNELS 3 Zrotation Xrotation Yrotation
					JOINT Neck
					{
						OFFSET 0.00000 11.07920 1.10792
						CHANNELS 3 Zrotation Xrotation Yrotation
						JOINT Neck1
						{
							OFFSET 0.00000 7.08032 0.00000
							CHANNELS 3 Zrotation Xrotation Yrotation
							JOINT Head
							{
								OFFSET 0.00000 7.08031 0.00000
								CHANNELS 3 Zrotation Xrotation Yrotation
								End site
								{
									OFFSET 0.00000 0.00000 0.00000
								}
							}
						}
					}
					JOINT RightShoulder
					{
						OFFSET -0.01000 7.91373 5.19711
						CHANNELS 3 Zrotation Xrotation Yrotation
						JOINT RightArm
						{
							OFFSET -18.41580 0.00000 0.00000
							CHANNELS 3 Zrotation Xrotation Yrotation
							JOINT RightForeArm
							{
								OFFSET -29.11090 0.00000 0.00000
								CHANNELS 3 Zrotation Xrotation Yrotation
								JOINT RightHand
								{
									OFFSET -24.65040 0.00000 0.00000
									CHANNELS 3 Zrotation Xrotation Yrotation
									JOINT RightHandThumb1
									{
										OFFSET -5.35114 -0.85590 3.97906
										CHANNELS 3 Zrotation Xrotation Yrotation
										JOINT RightHandThumb2
										{
											OFFSET -4.52789 0.00000 0.00000
											CHANNELS 3 Zrotation Xrotation Yrotation
											JOINT RightHandThumb3
											{
												OFFSET -2.46976 0.00000 0.00000
												CHANNELS 3 Zrotation Xrotation Yrotation
												End site
												{
													OFFSET 0.00000 0.00000 0.00000
												}
											}
										}
									}
									JOINT RightHandIndex1
									{
										OFFSET -14.26970 0.00000 2.88139
										CHANNELS 3 Zrotation Xrotation Yrotation
										JOINT RightHandIndex2
										{
											OFFSET -5.48836 0.00000 0.00000
											CHANNELS 3 Zrotation Xrotation Yrotation
											JOINT RightHandIndex3
											{
												OFFSET -3.01859 0.00000 0.00000
												CHANNELS 3 Zrotation Xrotation Yrotation
												End site
												{
													OFFSET 0.00000 0.00000 0.00000
												}
											}
										}
									}
									JOINT RightHandMiddle1
									{
										OFFSET -14.26970 0.00000 -0.09147
										CHANNELS 3 Zrotation Xrotation Yrotation
										JOINT RightHandMiddle2
										{
											OFFSET -6.17441 0.00000 0.00000
											CHANNELS 3 Zrotation Xrotation Yrotation
											JOINT RightHandMiddle3
											{
												OFFSET -3.56743 0.00000 0.00000
												CHANNELS 3 Zrotation Xrotation Yrotation
												End site
												{
													OFFSET 0.00000 0.00000 0.00000
												}
											}
										}
									}
									JOINT RightHandRing1
									{
										OFFSET -12.69180 0.00000 -3.06433
										CHANNELS 3 Zrotation Xrotation Yrotation
										JOINT RightHandRing2
										{
											OFFSET -5.62556 0.00000 0.00000
											CHANNELS 3 Zrotation Xrotation Yrotation
											JOINT RightHandRing3
											{
												OFFSET -3.56744 0.00000 0.00000
												CHANNELS 3 Zrotation Xrotation Yrotation
												End site
												{
													OFFSET 0.00000 0.00000 0.00000
												}
											}
										}
									}
									JOINT RightHandPinky1
									{
										OFFSET -11.11390 0.00000 -6.03719
										CHANNELS 3 Zrotation Xrotation Yrotation
										JOINT RightHandPinky2
										{
											OFFSET -4.52789 0.00000 0.00000
											CHANNELS 3 Zrotation Xrotation Yrotation
											JOINT RightHandPinky3
											{
												OFFSET -2.46976 0.00000 0.00000
												CHANNELS 3 Zrotation Xrotation Yrotation
												End site
												{
													OFFSET 0.00000 0.00000 0.00000
												}
											}
										}
									}
								}
							}
						}
					}
					JOINT LeftShoulder
					{
						OFFSET 0.01000 7.91373 5.19711
						CHANNELS 3 Zrotation Xrotation Yrotation
						JOINT LeftArm
						{
							OFFSET 18.41580 0.00000 0.00000
							CHANNELS 3 Zrotation Xrotation Yrotation
							JOINT LeftForeArm
							{
								OFFSET 29.11090 0.00000 0.00000
								CHANNELS 3 Zrotation Xrotation Yrotation
								JOINT LeftHand
								{
									OFFSET 24.65040 0.00000 0.00000
									CHANNELS 3 Zrotation Xrotation Yrotation
									JOINT LeftHandThumb1
									{
										OFFSET 5.35114 -0.85590 3.97906
										CHANNELS 3 Zrotation Xrotation Yrotation
										JOINT LeftHandThumb2
										{
											OFFSET 4.52789 0.00000 0.00000
											CHANNELS 3 Zrotation Xrotation Yrotation
											JOINT LeftHandThumb3
											{
												OFFSET 2.46977 0.00000 0.00000
												CHANNELS 3 Zrotation Xrotation Yrotation
												End site
												{
													OFFSET 0.00000 0.00000 0.00000
												}
											}
										}
									}
									JOINT LeftHandIndex1
									{
										OFFSET 14.26970 0.00000 2.88139
										CHANNELS 3 Zrotation Xrotation Yrotation
										JOINT LeftHandIndex2
										{
											OFFSET 5.48836 0.00000 0.00000
											CHANNELS 3 Zrotation Xrotation Yrotation
											JOINT LeftHandIndex3
											{
												OFFSET 3.01859 0.00000 0.00000
												CHANNELS 3 Zrotation Xrotation Yrotation
												End site
												{
													OFFSET 0.00000 0.00000 0.00000
												}
											}
										}
									}
									JOINT LeftHandMiddle1
									{
										OFFSET 14.26970 0.00000 -0.09147
										CHANNELS 3 Zrotation Xrotation Yrotation
										JOINT LeftHandMiddle2
										{
											OFFSET 6.17440 0.00000 0.00000
											CHANNELS 3 Zrotation Xrotation Yrotation
											JOINT LeftHandMiddle3
											{
												OFFSET 3.56744 0.00000 0.00000
												CHANNELS 3 Zrotation Xrotation Yrotation
												End site
												{
													OFFSET 0.00000 0.00000 0.00000
												}
											}
										}
									}
									JOINT LeftHandRing1
									{
										OFFSET 12.69180 0.00000 -3.06433
										CHANNELS 3 Zrotation Xrotation Yrotation
										JOINT LeftHandRing2
										{
											OFFSET 5.62556 0.00000 0.00000
											CHANNELS 3 Zrotation Xrotation Yrotation
											JOINT LeftHandRing3
											{
												OFFSET 3.56744 0.00000 0.00000
												CHANNELS 3 Zrotation Xrotation Yrotation
												End site
												{
													OFFSET 0.00000 0.00000 0.00000
												}
											}
										}
									}
									JOINT LeftHandPinky1
									{
										OFFSET 11.11390 0.00000 -6.03719
										CHANNELS 3 Zrotation Xrotation Yrotation
										JOINT LeftHandPinky2
										{
											OFFSET 4.52789 0.00000 0.00000
											CHANNELS 3 Zrotation Xrotation Yrotation
											JOINT LeftHandPinky3
											{
												OFFSET 2.46976 0.00000 0.00000
												CHANNELS 3 Zrotation Xrotation Yrotation
												End site
												{
													OFFSET 0.00000 0.00000 0.00000
												}
											}
										}
									}
								}
							}
						}
					}
					JOINT pCube4
					{
						OFFSET 0.00000 10.91090 1.10792
						CHANNELS 3 Zrotation Xrotation Yrotation
						End site
						{
							OFFSET 0.00000 0.00000 0.00000
						}
					}
				}
			}
		}
	}
	JOINT RightUpLeg
	{
		OFFSET -9.98441 0.00000 0.00000
		CHANNELS 3 Zrotation Xrotation Yrotation
		JOINT RightLeg
		{
			OFFSET 0.00000 -42.11790 0.00000
			CHANNELS 3 Zrotation Xrotation Yrotation
			JOINT RightFoot
			{
				OFFSET 0.00000 -45.00020 -0.00001
				CHANNELS 3 Zrotation Xrotation Yrotation
				JOINT RightForeFoot
				{
					OFFSET 0.00000 -3.74820 0.00000
					CHANNELS 3 Zrotation Xrotation Yrotation
					JOINT RightToeBase
					{
						OFFSET 0.00000 0.06325 14.43120
						CHANNELS 3 Zrotation Xrotation Yrotation
						End site
						{
							OFFSET 0.00000 0.00000 0.00000
						}
					}
				}
			}
		}
	}
	JOINT LeftUpLeg
	{
		OFFSET 9.98441 0.00000 0.00000
		CHANNELS 3 Zrotation Xrotation Yrotation
		JOINT LeftLeg
		{
			OFFSET 0.00000 -42.11800 0.00000
			CHANNELS 3 Zrotation Xrotation Yrotation
			JOINT LeftFoot
			{
				OFFSET 0.00000 -45.00070 0.00000
				CHANNELS 3 Zrotation Xrotation Yrotation
				JOINT LeftForeFoot
				{
					OFFSET 0.00000 -3.74824 0.00000
					CHANNELS 3 Zrotation Xrotation Yrotation
					JOINT LeftToeBase
					{
						OFFSET 0.00000 0.06325 14.43110
						CHANNELS 3 Zrotation Xrotation Yrotation
						End site
						{
							OFFSET 0.00000 0.00000 0.00000
						}
					}
				}
			}
		}
	}
}
MOTION
Frames: 4
Frame Time: 0.050000
-0.028192992328259864 -0.03114240924729011 0.03791970352228609 0.01786823338277278 -0.007593321110407474 -0.0050826576414878585 -3.69354304087729 4.159900182427228 -0.5908917902557071 -1.0501860696429148 3.8744635106963043 0.435044429844044 -1.345003275367618 -1.00034700610682 -0.10697390564712725 0.4234183526467752 0.8338442778635683 -0.8174118459214996 0.7197623885694667 12.15032333101377 -2.2252924136629035 -0.40638841193656605 -1.863935596519646 -9.009645908057749 0.4807638936737765 -18.02828545086268 -0.7070745257205986 -3.6285402342335944 1.490587095205061 -13.118849520497134 69.87109864674514 15.033440560147776 22.64086572114686 6.811219586873818 5.081443394142562 84.69970184225373 13.448906807700682 -0.4423306902546741 -4.440794298402681 4.512239027929488 -0.0924768949711128 -1.5756060359735764 0.015523505278356303 0.041487441007248424 -56.271098092184324 0.034198238565011696 -0.031422049729968565 -56.23530954259692 -38.79512792565759 -0.001870540490688081 -0.04227371146463605 0.03137989641166065 -0.03761568876274779 0.04141553949219313 0.04328371727613703 0.01924141596566174 0.026057904004633217 -36.64990954065573 -0.01007452636935785 0.045466824332587905 0.013187014436224147 -0.024472794090080588 -0.0025828010409856194 0.03680802151119751 -0.011998973870860493 -0.017858328263030656 -19.76238555159551 -0.006968270677839597 0.0032475418498149485 0.01603041743916147 -0.034544029330815816 0.029966411479066514 -0.027919873965934018 0.027579615322622972 -0.04554181170968246 24.056506960971085 0.006679096105154993 -0.023722942219006175 28.825270809094075 -0.02398932625909703 0.029429028001718656 28.899434904280483 -0.004561929671421589 0.021996327500979875 1.3704834080249875 0.5640455751320358 11.678779060776113 -66.04313189075484 26.038058786509758 -7.437483577242839 6.841461479284242 -13.433417332468732 -52.889028941623415 -8.877843476018464 2.5547715234797193 0.643691234037076 -0.43513846192570116 0.0857709861213109 -8.114550012917132 -0.0347464203627688 0.003484293642038821 44.551513309360615 0.018787857645559822 0.008692536855523542 44.615941585825816 12.48805156375687 0.045480172641676544 0.03528640284313277 0.033176956270088244 0.023798337740797648 -0.04004876120387245 -0.04783319998196338 -0.018435792305534722 -0.01863877047062865 11.102126248318493 -0.02572317578409142 -0.024489411957597216 -0.04145860185482396 -0.011622520572298678 0.006731122557420248 -0.0193561543257872 0.011167818535016695 0.0007095444797652863 4.754718734518475 0.005040798842295771 0.036658725769420385 0.03128972431757251 -0.016552657424915043 -0.04716420450621393 0.04151965274898476 -0.003260065141993195 -0.03374348020776192 -5.628778733462943 0.0003778221356760561 0.0077030583789932565 -6.718279531626671 -0.042236013811270894 -0.03051695982918084 -6.703635825292262 -0.014177670775224631 0.020780658066894206 0.02944935530089476 -0.04655675074123989 0.008547483999702519 8.020053149612346 3.4912299555864874 -19.267846909149906 -0.01073614506300399 10.402469861534113 0.046460660409512855 -5.612923554512524 -15.687204136074852 3.2364547677240796 -0.04927140268399046 -0.005840357768709413 -0.0058171750985205085 -0.00854776547183844 4.694401283082745 -0.006950905385943875 12.467668237548446 -8.248061110094346 6.878371959278373 0.04356235504454971 46.426739131247885 0.040046847930069185 -4.319421940709883 -14.797544033619953 -3.835880354826144 0.03856305814105606 0.02472792828441311 -0.02728770852552513 -0.019668848014972 -10.7458534818746 -0.025391495846836545 
0.0019546011423964534 0.04783254969401534 0.04176694430754217 0.024736274700835156 -0.005515791966869734 -0.0419924995322007 -3.485509458083517 4.003298519770542 -0.6752306269866679 -1.022731679789924 3.9225717064009658 0.38582133807124636 -1.2943729730736069 -1.1213550063433648 -0.1266664326961116 0.3654846088132846 0.7846031387827478 -0.7497987488241701 0.6128086922419964 12.392605823027905 -2.043896493117303 -0.3040537911402277 -1.7172917607513356 -8.331926414707988 0.5327468897777262 -17.96768214951805 -0.6649475181718861 -4.164054381322422 1.6659738371475865 -13.363636860599717 70.39860756900215 14.537118819667906 22.010450302082933 4.467238455738005 5.039389739639817 82.62988715741407 13.283201263277231 -0.48188480903963804 -4.096406728774893 4.491760504436625 -0.13178890687008085 -1.5846447822694683 -0.01176697182680668 -0.011829773440693013 -56.219446993571616 0.031002882733559747 0.006907503746772182 -56.2118912827329 -38.73431625189913 -0.025480218885249258 -0.026195482169578333 -0.016456273907409027 -0.004549964229626744 0.014832660853861495 0.0264170158520922 0.021962626246416254 0.03607839006962877 -36.688198491893324 0.017064195670744183 0.03845146550665564 0.02544867571477272 0.009388066176238686 0.000610170182943888 -0.036354122202361755 0.037063082816410416 0.0089874855978286 -19.749489420334175 0.016851481737680495 0.04143760940403052 -0.031002742986151514 -0.0050438446762769715 0.015299037107330295 0.04675185714409762 -0.028001842174242484 0.041902270828808 24.058008917326852 0.00939418605274008 -0.01603773118516562 28.915031731497635 -0.03479724138712452 -0.024882176899510115 28.872476065680043 -0.01841329352595034 -0.005329755472211879 2.073868766147284 0.6885187656328172 11.868914850308471 -66.3279679555672 26.09944797339311 -7.651420599601968 6.549155486648892 -13.574949277494756 -52.87716434136403 -9.062990710059264 1.9096404884102898 0.9929445224512136 -0.44255631528772377 0.08608569536722807 -8.114889378811066 0.008849148724240674 0.03906426202803465 44.53311485530913 -0.03773797491782767 0.04416788321051691 44.54117430692489 12.410416718058615 0.04301538829142026 -0.011022451657200012 -0.018951066034925364 -0.037953675360738764 0.03234530384026456 -0.04494402812081007 0.010939143832358233 0.01255562920353623 11.078624707197294 0.010185446321104238 0.04000792159203226 -0.04160814228902622 -0.03691889583167519 -0.04084717644315786 0.0056385219073953885 -0.02206613497798457 0.022789611785502983 4.820859783891979 0.014384159399576752 -0.028652501743413696 0.015312278166914177 -0.040369698796632644 0.007717030032481152 0.04970392273437476 -0.010516246557644406 -0.031305946934303865 -5.642317911358974 0.03107155035110866 -0.02255605999407821 -6.7216805935664485 -0.019494183650910334 0.005885495566242763 -6.758560246946537 0.04610808667212515 0.012497838602312055 -0.033755402249338366 0.010184843025406976 0.04733038355559583 8.036410550013933 3.5410519051626235 -19.190915708100626 0.02708456938194339 10.3981072414054 0.05492516263112529 -5.5820415919157345 -15.624780203206234 3.2370166887373455 0.00855889999175984 -0.021940259994840793 -0.019979458492809177 -0.027286698465519538 4.648834460020545 -0.004897495666733204 12.492158142341989 -8.246914357834974 6.8893703729567894 -0.018997743352434537 46.336559746388644 0.035593521108848745 -4.291223138781731 -14.73389315023392 -3.839341520361786 -0.0005518894156259258 0.02461205797102234 0.012339968553463978 -0.032074331499814625 -10.732528642141904 -0.010643724249409785 
-0.014526270000352807 0.014898882289119697 -0.026112130913322852 -0.04030759388151719 0.017149459114591464 0.030471319756871302 -3.268097501762675 3.7633876247968048 -0.6964049182026459 -0.9938554261054721 3.964329563500066 0.40959010476828644 -1.360217199723529 -1.1879804946511474 -0.11717625737819548 0.34102745697498954 0.7715514496099449 -0.7239966870644556 0.5866602656288809 12.727813574944586 -2.0054459644929614 -0.288517266464363 -1.5831357252235274 -7.923033998537687 0.5033793732973866 -17.76946512749632 -0.676794737584959 -4.587549690971745 1.803325484121147 -13.635593871697626 70.98923324119406 14.731827556241655 21.135581526787988 1.6169772780762273 4.751333882296011 79.20932748182634 13.348532740281893 -0.46886077631286555 -3.79091916046514 4.563907242460588 -0.10113597551044201 -1.5840927702779297 0.036136228412256326 -0.0025856041750102004 -56.237404726124865 -0.0001354074818513651 -0.012327737746573253 -56.21551290335808 -38.79780153027914 -0.0277025710937099 -0.010058482853549398 -0.03488970430240535 -0.03230425931798826 0.04418595566772518 -0.007383322076607828 -0.002689572203733584 0.04327165254627205 -36.68579725807251 -0.006567499155184062 0.019538798615221488 0.014478175238850342 0.010461438985039076 -0.03855149150074789 0.029673658939672103 0.03545690537228631 0.0015652919247422213 -19.73944399551362 0.013079749320204132 -0.002165488056426454 -0.03305462107579073 0.017111144171685536 -0.04481505599810669 -0.011017236485810024 -0.019754212511464687 -0.023689882381764737 24.048405702417487 -0.02485063779086351 0.01372650227760262 28.85672808148486 0.033004389105847465 -0.034061264491444594 28.837855558487355 0.02116911770954739 0.027628082682800963 2.6636351655609842 0.8368592694510609 12.090183845050266 -66.37475710218624 26.360893048540174 -8.163366678704898 6.092769207977211 -13.579269396504365 -53.02587487426281 -9.284372222762498 1.369358458821325 1.3211269283743718 -0.46873562690840204 0.11372731977348308 -8.109109254715403 0.02623743966766556 -0.029605577064247077 44.61081433338293 0.00970910306334878 -0.007230287933027127 44.553592717000896 12.445894675311186 -0.027000435845534486 0.00770458458630962 0.042560973815233515 0.02299652286031139 -0.03764621322029775 -0.0022375195508906195 0.003011937878718912 -0.00864984319119558 11.129837158466168 0.04253212414560174 0.013468061362158527 0.02741994274939234 0.013852375874230044 -0.026775974200756367 0.004458119945052458 -0.009291623415085144 0.0034204281657130428 4.755157548250611 -0.025055588702697047 -0.01762486903883175 0.0394022808209158 0.011492983494762132 -0.025956016687902775 -0.02763460463837543 -0.021510859575104232 -0.017116840617130574 -5.603345164125678 0.004750382876459868 0.00809944430030564 -6.757103203772716 0.017833613459638395 -0.0463290981830034 -6.744045917139502 0.017202828897887282 -0.036985748267025664 -0.008704469110726552 0.04623234456708392 0.004443413664294592 8.040068804064239 3.4890196389383528 -19.21581344134 -0.0010081480492465193 10.38688746308446 0.03864376813688161 -5.629280526878733 -15.654375004122183 3.1859489836226276 0.015232926104992479 -0.031208923026139212 0.02725129424894452 0.001795452376261166 4.7256717554686585 0.013936764197188985 12.467327395432036 -8.255353506718043 6.844829826773176 -0.017058725695067483 46.39475340514906 -0.0019728462292511705 -4.32502974758965 -14.719090175233617 -3.87135822706008 -0.04982875386599209 0.03070999025467133 -0.020863836128116656 0.022149310191243325 -10.757060790765667 0.003778966859151855 
0.020906526592966247 0.030430889052271665 0.0033773122773066385 0.019253308338994458 -0.0321916008500675 0.026302513305494903 -2.980206412282732 3.477451549897029 -0.7099088742545843 -1.0093788021414505 3.911780751782446 0.36413397266344494 -1.315497169122908 -1.299994646789139 -0.02263151666569862 0.23238873429410586 0.7048097594636187 -0.6966251547354537 0.5454504854165092 13.019337033885659 -1.8955568264203217 -0.2511405690814925 -1.3939989495392517 -7.4903476303886585 0.5030993075090406 -17.541734953061336 -0.639061017184177 -5.234723792933117 1.9264972404470297 -13.656871037816394 71.2692434787251 13.921802162128476 21.433231567429193 0.15978421222114586 4.128650818635422 78.02598917937956 13.10376265856985 -0.45167917985238815 -3.366080499970746 4.524985719545721 -0.1588728860822728 -1.6270122720021643 0.01046003259932459 0.009410424611386012 -56.198245391787246 0.031297512421701285 -0.017291382074429738 -56.260281236794334 -38.81563525719127 0.014286095351546912 -0.01600658882413931 -0.027384793329680274 -0.012922794971599802 -0.02291805708446299 0.038604369540888424 0.026301735657363313 0.00853910375599752 -36.71349065019719 -0.03032231893182535 0.02320007733218141 -0.015513763799633826 -0.019344035221103655 -0.044542331264196766 -0.009307564280193479 -0.020107101908307203 0.02042649476375054 -19.717636684039107 0.02041265482701766 -0.03698443534344037 0.00645956658049153 -0.03971712160935457 0.042549382581839865 0.0162493100285949 0.015069976694672298 -0.03451070794927975 24.026157652029326 0.017471244063955 0.023550359664903084 28.834807952477753 -0.0021844465635129946 0.012242695267769926 28.866586201623857 -0.008078019958875797 -0.02859046427669648 3.575536952693951 0.9794943733314364 12.293252824961039 -66.44487624894079 25.772621650376323 -9.409002913842277 5.672465450460808 -13.508931486703526 -53.92643814148346 -9.004599304512976 0.8836604160683452 1.5284057052065723 -0.521838293226936 0.04367695791949894 -8.098568441567267 -0.033762359988100496 0.009406982941704603 44.604647241474 0.025326873618122466 0.02343281063716034 44.58312549498816 12.45100595824325 0.0009768738139494307 -0.01602459963318825 0.01396477877960832 -0.012047416854807556 0.03282671119910482 -0.024734058371995108 -0.017431842408864792 0.03271430900949049 11.147153733311812 0.038410777515407876 0.008725851381592938 0.04945154797524268 0.005755681163673864 -0.028624562678614594 0.012008340538096322 0.0005280114771193942 0.04377335570183335 4.771163492813804 0.041404104356140746 0.03716832101919766 -0.018254380985842387 -0.044344799074940947 -0.011003413253548432 0.028094582226586326 0.04097765375942825 0.031791516961102224 -5.642935546075049 0.02016632880802068 -0.0446285753488836 -6.696214007412186 0.000325992729695909 0.01792441661757361 -6.711356593663202 -0.027006115858481654 -0.030069497399848936 0.01266930884510403 -0.010780323260834862 0.018484242023848893 8.030917581438251 3.526144129557772 -19.245647170892614 -0.021297681970834585 10.39773978075816 -0.002795533849920869 -5.638315991739451 -15.68321375571765 3.2159854330874924 0.04795220153235694 0.027287445688359897 0.02299697952947256 -0.029318990159543163 4.712686861201249 -0.018557485812799368 12.436376631222041 -8.20750719287995 6.892237001355414 -0.008925004094838387 46.39787544691619 -0.044135455158757324 -4.281769450002459 -14.788436803021899 -3.8483431614006296 -0.006494259670560095 -0.004111000934917684 0.006400366945286881 -0.0027487560112400868 -10.718683965388115 0.021863578430224323 
